<?xml version="1.0" encoding="UTF-8" standalone="no"?>
<!-- Created with Inkscape (http://www.inkscape.org/) -->

<svg
   version="1.1"
   id="svg306"
   width="228.64"
   height="129.5"
   viewBox="0 0 228.64 129.5"
   sodipodi:docname="logoneu.svg"
   inkscape:version="1.2.1 (9c6d41e410, 2022-07-14)"
   inkscape:export-filename="logoneu.png"
   inkscape:export-xdpi="96"
   inkscape:export-ydpi="96"
   xmlns:inkscape="http://www.inkscape.org/namespaces/inkscape"
   xmlns:sodipodi="http://sodipodi.sourceforge.net/DTD/sodipodi-0.dtd"
   xmlns:xlink="http://www.w3.org/1999/xlink"
   xmlns="http://www.w3.org/2000/svg"
   xmlns:svg="http://www.w3.org/2000/svg">
  <defs
     id="defs310">
    <linearGradient
       id="linearGradient1737"
       inkscape:swatch="solid">
      <stop
         style="stop-color:#000000;stop-opacity:1;"
         offset="0"
         id="stop1735" />
    </linearGradient>
    <linearGradient
       id="linearGradient1707"
       inkscape:swatch="solid">
      <stop
         style="stop-color:#000000;stop-opacity:1;"
         offset="0"
         id="stop1705" />
    </linearGradient>
    <linearGradient
       id="linearGradient1701"
       inkscape:swatch="solid">
      <stop
         style="stop-color:#020202;stop-opacity:1;"
         offset="0"
         id="stop1699" />
    </linearGradient>
    <linearGradient
       inkscape:collect="always"
       xlink:href="#linearGradient1737"
       id="linearGradient272"
       gradientUnits="userSpaceOnUse"
       gradientTransform="scale(0.92576151,1.0801919)"
       x1="18.579008"
       y1="64.011963"
       x2="241.60037"
       y2="64.011963" />
  </defs>
  <sodipodi:namedview
     id="namedview308"
     pagecolor="#ffffff"
     bordercolor="#000000"
     borderopacity="0.25"
     inkscape:showpageshadow="2"
     inkscape:pageopacity="0.0"
     inkscape:pagecheckerboard="0"
     inkscape:deskcolor="#d1d1d1"
     showgrid="false"
     inkscape:zoom="1.612"
     inkscape:cx="209.67742"
     inkscape:cy="243.17618"
     inkscape:window-width="1920"
     inkscape:window-height="1009"
     inkscape:window-x="-8"
     inkscape:window-y="-8"
     inkscape:window-maximized="1"
     inkscape:current-layer="g312"
     showguides="true">
    <sodipodi:guide
       position="275.43424,-15.040943"
       orientation="0,-1"
       id="guide288"
       inkscape:locked="false" />
  </sodipodi:namedview>
  <g
     inkscape:groupmode="layer"
     inkscape:label="Image"
     id="g312"
     transform="translate(-7.8456646,-6.043407)">
    <path
       style="fill:#000000"
       d="m 8.7956646,129.64049 c 0.5225,-0.49661 1.8023104,-1.05911 2.8440204,-1.25 1.04171,-0.19088 2.75085,-1.49586 3.79809,-2.89996 l 1.90407,-2.55289 0.93181,-6.44711 c 0.51249,-3.5459 0.99818,-12.2971 1.07933,-19.447103 l 0.14753,-13 0.86304,6.5 c 0.47467,3.575 1.32826,9.875003 1.89685,14.000003 l 1.03382,7.5 2.91189,6.22588 2.9119,6.22589 3.31383,2.02038 c 1.8226,1.1112 4.29976,2.02206 5.5048,2.02411 1.20504,0.002 2.4691,0.45374 2.80902,1.00374 l 0.61803,1 H 24.604685 7.8456646 Z m 91.8701654,0.0321 c 0.29602,-0.47896 1.83503,-1.1302 3.42002,-1.4472 l 2.88182,-0.57636 1.83501,-3.8028 1.83501,-3.8028 0.55399,-17.5 0.55398,-17.500003 h 5 5 l 0.55398,17.500003 0.55399,17.5 1.83501,3.8028 1.83501,3.8028 2.88182,0.57636 c 1.58499,0.317 3.124,0.96824 3.42002,1.4472 l 0.5382,0.87084 h -16.61803 -16.61803 z m 40,0 c 0.29602,-0.47896 1.87715,-1.13862 3.51364,-1.46592 l 2.97543,-0.59509 1.6351,-2.49548 1.63511,-2.49549 0.8746,-9.78859 c 0.48103,-5.38372 0.89065,-13.951093 0.91028,-19.038593 l 0.0357,-9.25 h 4.84757 4.84756 l 0.58076,16.750003 0.58076,16.75 1.32168,4 1.32167,4 4.5,2.20878 4.5,2.20878 -17.30902,0.0412 -17.30901,0.0412 0.5382,-0.87084 z M 68.310125,119.29343 c -0.48731,-1.2375 -4.07411,-9 -7.97065,-17.25 -3.89654,-8.250003 -7.08668,-15.562503 -7.08921,-16.250003 l -0.0046,-1.25 h 5.53087 5.53087 l 4.97422,10.17176 c 2.73582,5.594473 5.14773,10.345273 5.3598,10.557333 0.21206,0.21207 1.62168,-2.90272 3.13247,-6.921763 4.43678,-11.8028 5.46887,-14.14357 6.00135,-13.61108 0.7442,0.7442 -12.68566,36.803753 -13.70703,36.803753 -0.47963,0 -1.27077,-1.0125 -1.75809,-2.25 z m -49.17099,-83.872093 -0.60653,-16.62208 -1.89347,-3.87792 -1.89347,-3.87791 -3.25,-0.9568 c -5.7230204,-1.68485 -3.5108704,-2.5432 6.55436,-2.5432 h 9.80435 l 9.8139,20.75 c 5.39764,11.4125 10.03382,21.3125 10.30263,22 l 0.48874,1.25 -5.85699,-10e-4 -5.85699,-0.001 -8,-17.24876 -8,-17.24876 -0.5,17.5 -0.5,17.5 -0.60653,-16.62209 z m 78.66576,9.37209 c 1.39813,-3.7125 5.062245,-13.6125 8.142485,-22 l 5.60044,-15.25 h 10.84892 10.84892 v 1 c 0,0.55 -0.87491,1 -1.94424,1 -1.06933,0 -3.09586,1.0125 -4.50341,2.25 l -2.55917,2.25 -0.99659,5.38649 c -0.54812,2.96257 -0.99659,11.40007 -0.99659,18.75 v 13.36351 h -5.47793 -5.47794 l -0.27206,-18.75 -0.27207,-18.75 -6.9278,18.75 c -3.81028,10.3125 -7.293915,18.75 -7.741395,18.75 -0.44749,0 0.33031,-3.0375 1.72843,-6.75 z m 54.405095,-1 c -0.0196,-4.2625 -0.42174,-12.06725 -0.8936,-17.3439 l -0.85792,-9.59389 -1.64947,-3.18972 -1.64946,-3.18971 -2.97775,-0.59555 c -1.63776,-0.32756 -3.17816,-0.91983 -3.42312,-1.31617 -0.54812,-0.88689 29.79463,-2.39926 49.54312,-2.46938 l 14.55613,-0.0517 7.72657,3.82079 7.72657,3.82078 3.89467,4.92713 c 6.3375,8.01754 8.75421,16.61361 8.20408,29.1813 l -0.16415,3.75002 h -5.61354 -5.61355 l 0.667,-4.44787 0.667,-4.44788 -1.13137,-6.23912 c -2.20205,-12.14358 -8.66306,-20.94977 -18.88906,-25.74531 l -5.58648,-2.61982 -13,0.0307 -13,0.0307 -4,1.47293 -4,1.47292 -0.27071,20.24636 -0.2707,20.24637 h -4.9793 -4.97929 l -0.0357,-7.75 z"
       id="path544" />
    <text
       xml:space="preserve"
       style="font-style:normal;font-variant:normal;font-weight:normal;font-stretch:normal;font-size:31.5874px;font-family:'Berlin Sans FB';-inkscape-font-specification:'Berlin Sans FB, Normal';font-variant-ligatures:normal;font-variant-caps:normal;font-variant-numeric:normal;font-variant-east-asian:normal;mix-blend-mode:darken;fill:#000000;fill-opacity:0.961814;stroke:url(#linearGradient272);stroke-width:1.00157;stroke-dasharray:none;stroke-dashoffset:0;stroke-opacity:1"
       x="16.058565"
       y="78.037743"
       id="text548"
       transform="scale(1.0230488,0.97747051)"><tspan
         sodipodi:role="line"
         id="tspan546"
         x="16.058565"
         y="78.037743"
         style="font-style:normal;font-variant:normal;font-weight:normal;font-stretch:normal;font-size:31.5874px;font-family:'Berlin Sans FB';-inkscape-font-specification:'Berlin Sans FB, Normal';font-variant-ligatures:normal;font-variant-caps:normal;font-variant-numeric:normal;font-variant-east-asian:normal;fill:#000000;fill-opacity:0.961814;stroke:url(#linearGradient272);stroke-width:1.00157;stroke-dasharray:none;stroke-dashoffset:0;stroke-opacity:1">Kunsthandwerk</tspan></text>
  </g>
</svg>
